<?xml version="1.0" encoding="utf-8"?>
<!-- Generator: Adobe Illustrator 16.0.0, SVG Export Plug-In . SVG Version: 6.00 Build 0)  -->
<!DOCTYPE svg PUBLIC "-//W3C//DTD SVG 1.1//EN" "http://www.w3.org/Graphics/SVG/1.1/DTD/svg11.dtd">
<svg version="1.1" id="Layer_1" xmlns="http://www.w3.org/2000/svg" xmlns:xlink="http://www.w3.org/1999/xlink" x="0px" y="0px"
	 width="84.25px" height="30.709px" viewBox="0 0 84.25 30.709" enable-background="new 0 0 84.25 30.709" xml:space="preserve">
<path fill="#005024" d="M55.228,19.756c-0.884,0.883-1.703,1.748-4.22,1.562c-1.926-0.136-2.895-0.263-2.902-2.343
	c-0.008-2.268-0.021-4.532-0.028-6.797c0.756,0.036,1.514,0.079,2.268,0.129c1.234,0.084,1.881,0.503,2.198,1.257
	c0,0,0.323,0.701,0.847,0.754l0.348,0L53.715,8.91l-0.44-0.012c-0.398,0.063-0.75,0.691-0.75,0.691
	c-0.354,0.611-1.065,1.237-2.186,1.163c-0.754-0.047-1.515-0.091-2.271-0.128c-0.011-2.7-0.022-5.401-0.036-8.099
	c1.06,0.047,2.122,0.112,3.175,0.19c1.008,0.078,1.871,0.486,2.282,1.224c0.734,1.313,1.978,1.449,1.978,1.449
	c-0.005-1.149-0.01-2.48-0.018-3.827c-5.248-0.597-10.627-0.815-15.963-0.667l0.002,0.308c0,0,0.029,1.069,1.331,1.431
	c0.634,0.127,1.029,0.874,1.099,1.146c0.118,0.34,0.119,0.429,0.119,0.927c0.021,5.029,0.039,9.054,0.063,14.081
	c0.003,0.496,0.005,1.025-0.11,1.369c-0.067,0.267-0.31,0.709-0.911,1.09c0,0-0.682,0.365-0.678,1.032l0.002,0.339
	c5.074-0.14,10.652,0.115,16.094,0.785c0.181-1.246,0.315-3.503,0.454-4.437C55.855,18.735,55.228,19.756,55.228,19.756z
	 M36.568,6.808c-0.013-4.03-2.845-5.687-6.582-5.255c-4.166,0.483-8.4,1.233-11.912,2.158l0.031,0.271c0,0,0.162,0.846,1.239,1.278
	c0,0,0.858,0.402,0.862,1.252c0.019,4.009,0.265,12.564,0.287,18.427c1.153-0.278,2.352-0.534,3.559-0.763
	c2.589-0.609,2.133-2.254,2.133-2.254l-0.28-18.287c0.532-0.084,1.063-0.161,1.598-0.236c1.768-0.25,2.642,0.782,2.656,4.099
	c0.007,1.965-0.376,4.805-2.895,5.16c-0.326,0.044-0.652,0.093-0.98,0.143c1.539,2.298,3.568,5.383,5.829,8.508
	c0.793,1.097,1.912,1.526,3.826,1.579c0.936-0.078,1.813-0.141,2.971-0.182l0.757-0.028c-2.176-2.708-5.577-7.026-7.612-9.881
	C35,11.681,36.58,9.08,36.568,6.808z M69.175,20.205c-1.375-4.75-3.151-12.09-4.504-17.136c-2.633-0.563-5.325-1.02-8.053-1.37
	c0,0.074,0,0.148,0.001,0.223c0,0,0.06,0.824,0.775,1.249c1.325,0.789,2.388,3.032,2.783,4.167
	c0.453,1.197,2.957,10.413,4.364,15.321c0,0,0.565,2.056,2.915,2.804c0.538,0.134,1.071,0.272,1.605,0.417
	c1.582-4.947,4.733-13.799,6.63-19.627c-0.551-0.209-1.096-0.402-1.627-0.583C72.723,9.837,70.204,17.091,69.175,20.205z
	 M76.665,6.595l0.002,0.285c0,0,0.117,1.08,1.169,1.544c0.518,0.359,0.831,0.711,0.892,1.006c0.097,0.384,0.097,0.91,0.099,1.407
	c0.018,5.029-0.69,8.357-0.675,13.386c0,0,0.049,3.291,1.464,4.012c1.337,0.793,1.902,1.039,3.363,1.767
	c-0.015-4.126,0.677-13.356,0.652-20.022C81.514,8.752,79.142,7.603,76.665,6.595z M0.873,11.459l0.011,3.201l0.038,1.417
	c1.467-0.195,1.904-2.293,1.904-2.293c0.359-0.77,0.359-1.354,1.131-1.834l2.119-1.222l0.792,19.417
	c1.531-0.821,2.125-1.097,3.525-1.993c2.077-0.908,1.519-3.265,1.519-3.265L11.136,8.497l1.845-0.689
	c1.449-0.506,1.897,0.39,2.365,0.901c0.717,0.83,1.583,0.562,1.583,0.562l-0.016-5.002c-0.748,0.218-1.497,0.452-2.242,0.699
	C9.698,6.606,5,8.758,0.873,11.459z"/>
</svg>
